<svg width="20" height="21" viewBox="0 0 20 21" fill="none" xmlns="http://www.w3.org/2000/svg">
<path d="M10 0.8125C15.3516 0.8125 19.6875 5.14844 19.6875 10.5C19.6875 15.8516 15.3516 20.1875 10 20.1875C4.64844 20.1875 0.3125 15.8516 0.3125 10.5C0.3125 5.14844 4.64844 0.8125 10 0.8125ZM13.5938 13.0391C13.6719 12.9609 13.75 12.8047 13.75 12.6484C13.75 12.4531 13.6328 12.2969 13.5156 12.1797L11.25 10.5V4.875C11.25 4.5625 10.9375 4.25 10.625 4.25H9.375C9.02344 4.25 8.75 4.5625 8.75 4.875V10.9688C8.75 11.4766 8.94531 11.9062 9.33594 12.1797L11.9531 14.1328C12.0312 14.2109 12.1875 14.2891 12.3047 14.2891C12.5391 14.2891 12.6953 14.1719 12.8125 14.0156L13.5938 13.0391Z" fill="#151C14"/>
</svg>
